<?xml version="1.0" encoding="UTF-8" standalone="no"?>
<svg
   width="16"
   height="16"
   viewBox="0 0 16 16"
   version="1.1"
   id="svg4"
   sodipodi:docname="sortDESC-dark.svg"
   inkscape:version="1.1.2 (0a00cf5339, 2022-02-04, custom)"
   xmlns:inkscape="http://www.inkscape.org/namespaces/inkscape"
   xmlns:sodipodi="http://sodipodi.sourceforge.net/DTD/sodipodi-0.dtd"
   xmlns="http://www.w3.org/2000/svg"
   xmlns:svg="http://www.w3.org/2000/svg">
  <defs
     id="defs8" />
  <sodipodi:namedview
     id="namedview6"
     pagecolor="#ffffff"
     bordercolor="#666666"
     borderopacity="1.0"
     inkscape:pageshadow="2"
     inkscape:pageopacity="0.0"
     inkscape:pagecheckerboard="0"
     showgrid="false"
     inkscape:zoom="39.375"
     inkscape:cx="8"
     inkscape:cy="7.9746032"
     inkscape:window-width="1920"
     inkscape:window-height="1051"
     inkscape:window-x="3840"
     inkscape:window-y="0"
     inkscape:window-maximized="1"
     inkscape:current-layer="svg4" />
  <path
     d="m 8.0013843,4.0110649e-4 0.012,4.94568e-6 A 0.565,0.565 0 0 1 8.0793826,0.00543326 L 8.0013848,4.0111106e-4 A 0.566,0.566 0 0 1 8.362329,0.13454986 0.42,0.42 0 0 1 8.3773236,0.14755605 L 11.84498,3.4089854 a 0.48,0.48 0 0 1 -3.3e-4,0.7079995 0.552,0.552 0 0 1 -0.37706,0.1458447 C 11.331591,4.2627693 11.195611,4.2127177 11.09065,4.1166742 L 8.5316816,1.7056198 8.5259966,15.500619 C 8.5258863,15.776618 8.2877906,16.00052 7.9947905,16.000399 7.7007906,16.00028 7.4628829,15.77618 7.4629967,15.500181 L 7.4686812,1.7061817 4.9076887,4.1141266 a 0.556,0.556 0 0 1 -0.752,-3.064e-4 0.48,0.48 0 0 1 2.895e-4,-0.7080001 l 3.4693432,-3.25857048 0.013006,-0.0129946 a 0.528,0.528 0 0 1 0.040013,-0.0309836 l -0.053018,0.0439782 A 0.529,0.529 0 0 1 7.9893842,3.961608e-4 Z"
     fill="#000000"
     fill-rule="evenodd"
     id="path2" />
  <path
     style="fill:#f9f9f9;stroke-width:0.0254814"
     d="M 8.1206291,0.00808816 C 8.1829981,0.01916847 8.2700726,0.05424871 8.3141275,0.08604361 8.3581825,0.11783751 9.19265,0.89444636 10.168498,1.8118397 12.016873,3.5494922 12.021391,3.554237 12.01993,3.7565122 12.019184,3.8600573 11.94387,4.0253171 11.864046,4.0985884 11.7139,4.2364026 11.453814,4.2729696 11.270009,4.1821108 11.210079,4.152479 10.619059,3.6153173 9.8680968,2.9079338 9.1540343,2.2353105 8.5606423,1.6849772 8.549448,1.6849727 c -0.011193,0 -0.021646,3.1441734 -0.023236,6.9870612 L 8.523332,15.6591 8.449702,15.77501 C 8.356406,15.92188 8.2047539,16.000077 8.0133735,16 7.8219932,15.99991 7.6704059,15.9216 7.5772303,15.77465 l -0.073533,-0.115969 0.00288,-6.98707 c 0.00159,-3.8428878 -0.00657,-6.9870736 -0.018122,-6.9870782 -0.011553,0 -0.6030499,0.5470813 -1.3144389,1.2157459 C 5.4626274,3.5689436 4.8323399,4.1426966 4.7733781,4.1752855 4.6855241,4.2238427 4.63752,4.2328094 4.5073851,4.2249428 4.3086582,4.2129358 4.1580636,4.1177461 4.0736287,3.9507596 4.0029453,3.8109702 4.0009568,3.6920808 4.0670663,3.5569853 4.1034712,3.4825606 4.6173088,2.9844531 5.894204,1.7857619 6.8712706,0.86853579 7.7005277,0.09872809 7.7369976,0.07507628 7.8334933,0.0125013 7.9908427,-0.01497518 8.1206497,0.00808616 Z"
     id="path47" />
</svg>
