<?xml version="1.0" encoding="UTF-8" standalone="no"?>
<svg
   width="16"
   height="16"
   viewBox="0 0 16 16"
   version="1.1"
   id="svg4"
   sodipodi:docname="sort-dark.svg"
   inkscape:version="1.1.2 (0a00cf5339, 2022-02-04, custom)"
   xmlns:inkscape="http://www.inkscape.org/namespaces/inkscape"
   xmlns:sodipodi="http://sodipodi.sourceforge.net/DTD/sodipodi-0.dtd"
   xmlns="http://www.w3.org/2000/svg"
   xmlns:svg="http://www.w3.org/2000/svg">
  <defs
     id="defs8" />
  <sodipodi:namedview
     id="namedview6"
     pagecolor="#ffffff"
     bordercolor="#666666"
     borderopacity="1.0"
     inkscape:pageshadow="2"
     inkscape:pageopacity="0.0"
     inkscape:pagecheckerboard="0"
     showgrid="false"
     inkscape:zoom="39.375"
     inkscape:cx="8"
     inkscape:cy="7.9746032"
     inkscape:window-width="1920"
     inkscape:window-height="1007"
     inkscape:window-x="1920"
     inkscape:window-y="0"
     inkscape:window-maximized="1"
     inkscape:current-layer="svg4" />
  <path
     d="M8 16h-.012a.565.565 0 0 1-.066-.005L8 16a.566.566 0 0 1-.361-.134.42.42 0 0 1-.015-.013l-3.469-3.26a.48.48 0 0 1 0-.708.552.552 0 0 1 .377-.146c.136 0 .272.05.377.146l2.56 2.41V.5c0-.276.238-.5.531-.5.294 0 .532.224.532.5v13.794l2.56-2.409a.556.556 0 0 1 .752 0 .48.48 0 0 1 0 .708l-3.468 3.26-.013.013a.528.528 0 0 1-.04.031l.053-.044a.529.529 0 0 1-.364.147H8z"
     fill="#000"
     fill-rule="evenodd"
     id="path2" />
  <path
     style="fill:#f9f9f9;stroke-width:0.0253968"
     d="M 7.8997105,15.970171 C 7.837567,15.959149 7.7507995,15.924208 7.706894,15.892525 7.6629882,15.860843 6.831281,15.086868 5.8586558,14.172582 4.0163872,12.440815 4.0118848,12.436086 4.0132562,12.234407 c 7.02e-4,-0.10324 0.075665,-0.268043 0.1551687,-0.341131 0.1495346,-0.137469 0.408648,-0.174035 0.5918107,-0.08352 0.059726,0.02952 0.6487819,0.564854 1.3972637,1.269842 0.711704,0.670346 1.3031326,1.218812 1.3142856,1.218812 0.011153,0 0.020279,-3.134906 0.020279,-6.9664567 V 0.36549996 l 0.07331,-0.11559797 C 7.6582657,0.10342656 7.8093257,0.02539683 8,0.02539683 c 0.1906743,0 0.3417343,0.07802973 0.4346265,0.22450516 l 0.07331,0.11559797 V 7.3319563 c 0,3.8315507 0.00942,6.9664567 0.020926,6.9664567 0.01151,0 0.6005999,-0.545715 1.3090893,-1.212699 0.7084892,-0.666984 1.3362152,-1.239303 1.3949462,-1.27182 0.08751,-0.04845 0.135333,-0.05741 0.264991,-0.04962 0.197999,0.01189 0.348077,0.106737 0.432269,0.273196 0.07048,0.139348 0.07251,0.257886 0.0067,0.39261 -0.03624,0.07422 -0.547977,0.571069 -1.819668,1.766748 -0.9730845,0.914921 -1.7989654,1.682798 -1.835291,1.706395 -0.096114,0.06243 -0.2528714,0.08989 -0.382209,0.06695 z"
     id="path47" />
</svg>
