<svg width="16" height="16" viewBox="0 0 16 16" xmlns="http://www.w3.org/2000/svg">
    <path d="M8 16h-.012a.565.565 0 0 1-.066-.005L8 16a.566.566 0 0 1-.361-.134.42.42 0 0 1-.015-.013l-3.469-3.26a.48.48 0 0 1 0-.708.552.552 0 0 1 .377-.146c.136 0 .272.05.377.146l2.56 2.41V.5c0-.276.238-.5.531-.5.294 0 .532.224.532.5v13.794l2.56-2.409a.556.556 0 0 1 .752 0 .48.48 0 0 1 0 .708l-3.468 3.26-.013.013a.528.528 0 0 1-.04.031l.053-.044a.529.529 0 0 1-.364.147H8z" fill="#000" fill-rule="evenodd"/>
</svg>
